<svg width="28" height="28" viewBox="0 0 28 28" fill="none" xmlns="http://www.w3.org/2000/svg">
<path d="M22.9763 13.9865L25.9729 13.9865M22.9763 13.9865C22.9763 12.3315 21.6347 10.9899 19.9797 10.9899C18.3247 10.9899 16.983 12.3315 16.983 13.9865M22.9763 13.9865C22.9763 15.6415 21.6347 16.9831 19.9797 16.9831C18.3247 16.9831 16.983 15.6415 16.983 13.9865M16.983 13.9865L1.99995 13.9865M4.99657 4.99662C4.99657 6.65161 6.33816 7.99325 7.99319 7.99325C9.64822 7.99325 10.9898 6.65161 10.9898 4.99662M4.99657 4.99662C4.99657 3.34163 6.33816 2 7.99319 2C9.64822 2 10.9898 3.34163 10.9898 4.99662M4.99657 4.99662L1.99995 4.99662M10.9898 4.99662L25.9729 4.99662M4.99657 22.9764C4.99657 24.6314 6.33816 25.973 7.99319 25.973C9.64822 25.973 10.9898 24.6314 10.9898 22.9764M4.99657 22.9764C4.99657 21.3213 6.33816 19.9797 7.99319 19.9797C9.64822 19.9797 10.9898 21.3213 10.9898 22.9764M4.99657 22.9764L1.99995 22.9764M10.9898 22.9764L25.9729 22.9764" stroke="black" stroke-width="2.99662" stroke-linecap="round" stroke-linejoin="round"/>
</svg>
