<svg width="28" height="24" viewBox="0 0 28 24" fill="none" xmlns="http://www.w3.org/2000/svg">
<path d="M27.4286 6V21.4286C27.4286 22.8482 26.2768 24 24.8571 24H2.57143C1.15179 24 0 22.8482 0 21.4286V6C0 4.58036 1.15179 3.42857 2.57143 3.42857H7.28571L7.94464 1.66607C8.31964 0.664286 9.27857 0 10.35 0H17.0732C18.1446 0 19.1036 0.664286 19.4786 1.66607L20.1429 3.42857H24.8571C26.2768 3.42857 27.4286 4.58036 27.4286 6ZM20.1429 13.7143C20.1429 10.1679 17.2607 7.28571 13.7143 7.28571C10.1679 7.28571 7.28571 10.1679 7.28571 13.7143C7.28571 17.2607 10.1679 20.1429 13.7143 20.1429C17.2607 20.1429 20.1429 17.2607 20.1429 13.7143ZM18.4286 13.7143C18.4286 16.3125 16.3125 18.4286 13.7143 18.4286C11.1161 18.4286 9 16.3125 9 13.7143C9 11.1161 11.1161 9 13.7143 9C16.3125 9 18.4286 11.1161 18.4286 13.7143Z" fill="black"/>
</svg>
