<svg width="35" height="26" viewBox="0 0 35 26" fill="none" xmlns="http://www.w3.org/2000/svg">
<path fill-rule="evenodd" clip-rule="evenodd" d="M4.26679 0C1.91031 0 0 1.91031 0 4.2668V12.8004C0 15.1569 1.91031 17.0672 4.26679 17.0672V4.2668H25.6008C25.6008 1.91031 23.6905 0 21.334 0H4.26679ZM8.53359 12.8004C8.53359 10.4439 10.4439 8.53359 12.8004 8.53359H29.8676C32.2241 8.53359 34.1344 10.4439 34.1344 12.8004V21.334C34.1344 23.6905 32.2241 25.6008 29.8676 25.6008H12.8004C10.4439 25.6008 8.53359 23.6905 8.53359 21.334V12.8004ZM21.334 21.334C23.6905 21.334 25.6008 19.4237 25.6008 17.0672C25.6008 14.7106 23.6905 12.8004 21.334 12.8004C18.9774 12.8004 17.0672 14.7106 17.0672 17.0672C17.0672 19.4237 18.9774 21.334 21.334 21.334Z" fill="black"/>
</svg>
