<svg width="29" height="29" viewBox="0 0 29 29" fill="none" xmlns="http://www.w3.org/2000/svg">
<path d="M11.5261 9.70657C11.8034 9.52168 12.146 9.35642 12.5412 9.22852L12.5413 12.2706C12.146 12.1427 11.8034 11.9775 11.5261 11.7926C10.8737 11.3577 10.7496 10.9536 10.7496 10.7496C10.7496 10.5455 10.8737 10.1415 11.5261 9.70657Z" fill="black"/>
<path d="M16.1244 19.4372V16.395C16.5196 16.5229 16.8622 16.6881 17.1395 16.873C17.792 17.308 17.916 17.712 17.916 17.9161C17.916 18.1202 17.792 18.5242 17.1395 18.9592C16.8622 19.1441 16.5196 19.3092 16.1244 19.4372Z" fill="black"/>
<path fill-rule="evenodd" clip-rule="evenodd" d="M14.3329 28.6657C22.2487 28.6657 28.6657 22.2487 28.6657 14.3329C28.6657 6.41703 22.2487 0 14.3329 0C6.41703 0 0 6.41703 0 14.3329C0 22.2487 6.41703 28.6657 14.3329 28.6657ZM16.1245 5.37482C16.1245 4.38535 15.3224 3.58321 14.3329 3.58321C13.3434 3.58321 12.5412 4.38535 12.5412 5.37482V5.53963C11.4276 5.74878 10.3976 6.1525 9.53848 6.72523C8.24551 7.58719 7.16643 8.97475 7.16643 10.7496C7.16643 12.5245 8.24551 13.9121 9.53848 14.7741C10.3976 15.3467 11.4276 15.7506 12.5413 15.9596L12.5413 19.4375C11.8408 19.2101 11.3215 18.869 11.0303 18.5335C10.3818 17.7862 9.2503 17.7059 8.50295 18.3545C7.7556 19.003 7.67544 20.1344 8.32393 20.8819C9.33167 22.0432 10.8563 22.8086 12.5412 23.1253V23.2909C12.5412 24.2804 13.3433 25.0825 14.3328 25.0825C15.3224 25.0825 16.1245 24.2804 16.1245 23.2909V23.1261C17.2381 22.917 18.2681 22.5132 19.1272 21.9406C20.4202 21.0784 21.4993 19.691 21.4993 17.9161C21.4993 16.1411 20.4202 14.7535 19.1272 13.8916C18.2681 13.3189 17.2381 12.9152 16.1245 12.7061V9.22812C16.825 9.45558 17.3442 9.79669 17.6355 10.1322C18.2839 10.8796 19.4155 10.9597 20.1627 10.3112C20.9102 9.66276 20.9903 8.5312 20.3419 7.78385C19.3341 6.62244 17.8095 5.85703 16.1245 5.54029V5.37482Z" fill="black"/>
</svg>
