<svg width="20" height="24" viewBox="0 0 20 24" fill="none" xmlns="http://www.w3.org/2000/svg">
<path d="M9.74529 0.712565C9.78279 0.932877 10.5 5.14224 10.5 6.75005C10.5 9.2016 9.19685 10.95 7.27029 11.6532L7.87498 22.8141C7.90779 23.4563 7.39685 24 6.74998 24H3.74999C3.1078 24 2.59218 23.4609 2.62499 22.8141L3.22968 11.6532C1.29843 10.95 0 9.19692 0 6.75005C0 5.13755 0.717186 0.932877 0.754685 0.712565C0.904685 -0.238995 2.87812 -0.253057 2.99999 0.764127V7.38286C3.06093 7.54223 3.7078 7.53286 3.74999 7.38286C3.81561 6.19693 4.1203 0.857877 4.12499 0.736003C4.27968 -0.238995 6.2203 -0.238995 6.3703 0.736003C6.37967 0.862565 6.67967 6.19693 6.74529 7.38286C6.78748 7.53286 7.43904 7.54223 7.49529 7.38286V0.764127C7.61717 -0.24837 9.59529 -0.238995 9.74529 0.712565ZM15.3328 14.1047L14.6296 22.7813C14.5734 23.4375 15.0937 24 15.75 24H18.375C18.9984 24 19.4999 23.4984 19.4999 22.875V1.12506C19.4999 0.506316 18.9984 6.69961e-05 18.375 6.69961e-05C14.5078 6.69961e-05 7.99685 8.36723 15.3328 14.1047Z" fill="black"/>
</svg>
