<svg width="24" height="24" viewBox="0 0 24 24" fill="none" xmlns="http://www.w3.org/2000/svg">
<path d="M12.86 0.432585C12.2832 -0.144195 11.3481 -0.144195 10.7713 0.432585L0.432585 10.7713C-0.144195 11.3481 -0.144195 12.2832 0.432585 12.86C1.00938 13.4367 1.94453 13.4367 2.52132 12.86L2.95391 12.4274V22.1543C2.95391 22.97 3.61517 23.6312 4.43086 23.6312H7.38477C8.20046 23.6312 8.86172 22.97 8.86172 22.1543V19.2004C8.86172 18.3847 9.52298 17.7234 10.3387 17.7234H13.2926C14.1083 17.7234 14.7695 18.3847 14.7695 19.2004V22.1543C14.7695 22.97 15.4308 23.6312 16.2465 23.6312H19.2004C20.0161 23.6312 20.6773 22.97 20.6773 22.1543V12.4274L21.1099 12.86C21.6867 13.4367 22.6219 13.4367 23.1987 12.86C23.7754 12.2832 23.7754 11.3481 23.1987 10.7713L12.86 0.432585Z" fill="black"/>
</svg>
