<svg width="24" height="24" viewBox="0 0 24 24" fill="none" xmlns="http://www.w3.org/2000/svg">
<path d="M23.3389 6.65769L21.1779 8.81871C20.9575 9.03903 20.6013 9.03903 20.3809 8.81871L15.1776 3.61538C14.9573 3.39506 14.9573 3.03879 15.1776 2.81847L17.3386 0.657448C18.2152 -0.219149 19.6403 -0.219149 20.5216 0.657448L23.3389 3.47475C24.2202 4.35134 24.2202 5.7764 23.3389 6.65769ZM13.3213 4.6748L1.01143 16.9847L0.01764 22.6802C-0.118303 23.449 0.552036 24.1146 1.32082 23.9834L7.01636 22.9849L19.3262 10.675C19.5465 10.4547 19.5465 10.0984 19.3262 9.87813L14.1229 4.6748C13.8979 4.45447 13.5416 4.45447 13.3213 4.6748ZM5.81631 15.9299C5.55849 15.6721 5.55849 15.2596 5.81631 15.0018L13.0353 7.78273C13.2932 7.52491 13.7057 7.52491 13.9635 7.78273C14.2213 8.04055 14.2213 8.45307 13.9635 8.71089L6.74447 15.9299C6.48665 16.1878 6.07413 16.1878 5.81631 15.9299ZM4.12405 19.8723H6.37414V21.5739L3.35058 22.1036L1.89271 20.6457L2.42242 17.6222H4.12405V19.8723Z" fill="black"/>
</svg>
