<svg width="22" height="22" viewBox="0 0 22 22" fill="none" xmlns="http://www.w3.org/2000/svg">
<path d="M10.8033 0C4.83534 0 0 4.83534 0 10.8033C0 16.7712 4.83534 21.6066 10.8033 21.6066C16.7712 21.6066 21.6066 16.7712 21.6066 10.8033C21.6066 4.83534 16.7712 0 10.8033 0ZM10.8033 4.18191C12.9204 4.18191 14.6367 5.89824 14.6367 8.01533C14.6367 10.1324 12.9204 11.8488 10.8033 11.8488C8.68618 11.8488 6.96985 10.1324 6.96985 8.01533C6.96985 5.89824 8.68618 4.18191 10.8033 4.18191ZM10.8033 19.1671C8.24621 19.1671 5.95487 18.0084 4.4215 16.1962C5.24046 14.6541 6.84353 13.5912 8.71232 13.5912C8.81687 13.5912 8.92141 13.6086 9.02161 13.6391C9.58791 13.8221 10.1803 13.9397 10.8033 13.9397C11.4262 13.9397 12.023 13.8221 12.5849 13.6391C12.6851 13.6086 12.7897 13.5912 12.8942 13.5912C14.763 13.5912 16.3661 14.6541 17.185 16.1962C15.6517 18.0084 13.3603 19.1671 10.8033 19.1671Z" fill="black"/>
</svg>
