<svg width="24" height="21" viewBox="0 0 24 21" fill="none" xmlns="http://www.w3.org/2000/svg">
<path d="M16 4.39917C16 6.60831 14.2092 8.39918 12 8.39918C9.79087 8.39918 8 6.60831 8 4.39917C8 2.19004 9.79087 0.39917 12 0.39917C14.2092 0.39917 16 2.19004 16 4.39917Z" fill="black"/>
<path d="M22.6666 7.06584C22.6666 8.5386 21.4728 9.73251 20 9.73251C18.5272 9.73251 17.3333 8.5386 17.3333 7.06584C17.3333 5.59308 18.5272 4.39917 20 4.39917C21.4728 4.39917 22.6666 5.59308 22.6666 7.06584Z" fill="black"/>
<path d="M17.3334 16.3993C17.3334 13.4538 14.9455 11.0659 12 11.0659C9.0545 11.0659 6.66669 13.4538 6.66669 16.3993V20.3993H17.3334V16.3993Z" fill="black"/>
<path d="M6.66665 7.06584C6.66665 8.5386 5.47274 9.73251 3.99998 9.73251C2.52722 9.73251 1.33331 8.5386 1.33331 7.06584C1.33331 5.59308 2.52722 4.39917 3.99998 4.39917C5.47274 4.39917 6.66665 5.59308 6.66665 7.06584Z" fill="black"/>
<path d="M20 20.3992V16.3992C20 14.9937 19.6376 13.6728 19.0009 12.5249C19.3202 12.4428 19.655 12.3992 20 12.3992C22.2092 12.3992 24 14.19 24 16.3992V20.3992H20Z" fill="black"/>
<path d="M4.99901 12.5249C4.36247 13.6728 4 14.9937 4 16.3992V20.3992H0V16.3992C0 14.19 1.79087 12.3992 4 12.3992C4.34495 12.3992 4.67969 12.4428 4.99901 12.5249Z" fill="black"/>
</svg>
